<?xml version="1.0" standalone="no"?>
<!DOCTYPE svg PUBLIC "-//W3C//DTD SVG 20010904//EN"
 "http://www.w3.org/TR/2001/REC-SVG-20010904/DTD/svg10.dtd">
<svg version="1.0" xmlns="http://www.w3.org/2000/svg"
 width="1280.000000pt" height="960.000000pt" viewBox="0 0 1280.000000 960.000000"
 preserveAspectRatio="xMidYMid meet">
<metadata>
Created by potrace 1.12, written by Peter Selinger 2001-2015
</metadata>
<g transform="translate(0.000000,960.000000) scale(0.100000,-0.100000)"
fill="#000000" stroke="none">
<path d="M3181 9578 c32 -63 93 -75 140 -29 16 16 29 34 29 40 0 7 -32 11 -90
11 l-91 0 12 -22z"/>
<path d="M6677 9564 c-26 -54 -9 -131 37 -164 34 -25 87 -40 115 -34 95 23
142 109 109 201 l-12 33 -116 0 -116 0 -17 -36z"/>
<path d="M8054 9572 c41 -79 145 -109 221 -62 27 17 65 67 65 87 0 1 -68 3
-150 3 l-151 0 15 -28z"/>
<path d="M9490 9590 c18 -12 98 -12 125 0 13 6 -6 9 -60 9 -55 1 -75 -2 -65
-9z"/>
<path d="M11422 9588 c-15 -20 -6 -136 14 -166 16 -25 71 -82 79 -82 2 0 29
-6 59 -14 41 -11 64 -12 92 -4 52 14 110 63 134 113 22 46 27 134 8 153 -17
17 -372 17 -386 0z"/>
<path d="M12700 9596 c0 -29 71 -136 91 -136 5 0 9 32 9 70 l0 70 -50 0 c-27
0 -50 -2 -50 -4z"/>
<path d="M10207 9554 c-20 -13 -51 -43 -68 -67 -27 -37 -30 -48 -27 -97 11
-142 129 -217 253 -160 59 27 111 100 94 131 -8 17 -8 23 1 29 21 13 2 76 -38
123 -58 69 -147 86 -215 41z"/>
<path d="M1795 9542 c-14 -15 -28 -35 -31 -46 -8 -23 23 -66 60 -84 23 -12 31
-11 51 2 38 25 48 51 35 91 -21 64 -74 81 -115 37z"/>
<path d="M5332 9476 c-29 -28 -34 -40 -35 -85 -2 -49 1 -55 35 -87 45 -41 101
-46 153 -14 37 23 42 32 50 93 5 38 2 46 -30 85 -34 40 -40 42 -88 41 -45 0
-57 -5 -85 -33z"/>
<path d="M8920 9450 c-7 -4 -20 -6 -29 -4 -9 2 -34 -6 -55 -18 -122 -70 -110
-273 18 -310 60 -18 76 -17 121 2 37 16 99 70 80 70 -4 0 0 9 11 21 23 26 23
112 0 157 -18 34 -126 94 -146 82z"/>
<path d="M370 9400 c-37 -37 -19 -83 36 -94 44 -10 67 18 54 64 -15 53 -54 66
-90 30z"/>
<path d="M12247 9376 c-93 -34 -137 -99 -137 -201 0 -156 147 -254 286 -191
95 43 135 145 103 261 -27 97 -158 166 -252 131z"/>
<path d="M3963 9365 c-41 -17 -65 -56 -67 -104 -2 -91 121 -144 182 -78 77 83
-13 226 -115 182z"/>
<path d="M7458 9278 c-93 -87 -88 -196 13 -262 59 -40 116 -33 169 19 110 107
42 275 -110 275 -28 0 -46 -8 -72 -32z"/>
<path d="M10912 9252 c-24 -13 -55 -43 -70 -66 -47 -72 -30 -199 34 -255 56
-48 133 -63 196 -37 35 15 107 81 109 101 1 5 3 21 5 35 1 14 5 38 7 54 4 27
-18 87 -35 94 -5 2 -8 9 -8 16 0 35 -102 86 -165 84 -16 -1 -49 -13 -73 -26z"/>
<path d="M2550 9214 c-46 -15 -67 -98 -34 -135 26 -29 81 -41 108 -23 70 45
51 146 -30 158 -16 2 -36 2 -44 0z"/>
<path d="M6114 9142 c-75 -48 -90 -134 -36 -201 24 -29 38 -37 78 -43 44 -7
52 -4 84 21 74 59 82 129 23 200 -36 43 -101 53 -149 23z"/>
<path d="M9605 9132 c-37 -7 -113 -65 -129 -99 -9 -19 -16 -58 -16 -87 0 -43
6 -61 29 -92 52 -72 65 -79 147 -79 71 0 74 1 112 38 55 54 73 116 55 187 -7
30 -21 63 -31 73 -34 38 -119 68 -167 59z"/>
<path d="M1111 9062 c-28 -22 -31 -75 -6 -102 34 -38 108 -19 116 30 11 69
-58 115 -110 72z"/>
<path d="M4713 9001 c-35 -15 -63 -62 -63 -106 0 -39 25 -80 65 -105 32 -20
39 -21 76 -8 54 17 91 78 82 133 -12 75 -90 117 -160 86z"/>
<path d="M8245 8981 c-46 -11 -72 -28 -100 -65 -36 -48 -36 -135 1 -184 34
-43 100 -74 145 -67 19 3 40 6 48 7 23 2 69 60 86 107 28 83 -8 161 -92 196
-38 16 -43 17 -88 6z"/>
<path d="M11675 8933 c-55 -6 -73 -13 -105 -39 -43 -37 -71 -96 -75 -162 -3
-64 7 -89 58 -145 30 -33 44 -40 102 -50 64 -11 70 -10 113 14 24 14 59 44 76
68 27 38 31 51 31 109 0 58 -4 73 -30 112 -40 59 -112 98 -170 93z"/>
<path d="M12784 8875 c-3 -19 -2 -56 4 -82 9 -47 10 -47 11 35 1 87 -4 104
-15 47z"/>
<path d="M3302 8842 c-58 -54 -33 -142 44 -156 45 -9 80 12 100 59 23 57 -9
107 -77 120 -30 6 -40 2 -67 -23z"/>
<path d="M6845 8815 c-51 -24 -74 -49 -83 -90 -31 -145 107 -243 218 -155 50
39 71 112 47 163 -21 44 -57 75 -98 87 -42 12 -46 12 -84 -5z"/>
<path d="M10277 8776 c-48 -17 -72 -39 -103 -92 -46 -78 -10 -204 73 -260 39
-25 116 -24 170 4 64 33 99 93 102 171 2 54 -1 67 -20 87 -12 13 -19 24 -14
24 5 0 -4 14 -20 30 -16 17 -37 30 -46 30 -10 0 -21 5 -24 10 -9 14 -73 12
-118 -4z"/>
<path d="M1902 8720 c-24 -10 -46 -53 -43 -85 1 -11 15 -32 32 -48 29 -26 30
-27 66 -12 44 19 53 30 53 70 -1 57 -56 96 -108 75z"/>
<path d="M5447 8664 c-39 -22 -60 -68 -54 -121 11 -103 133 -145 207 -72 26
26 28 34 24 86 -3 46 -9 63 -32 85 -34 34 -103 45 -145 22z"/>
<path d="M8872 8614 c-38 -23 -78 -75 -66 -86 2 -3 0 -17 -6 -32 -13 -35 3
-109 29 -135 10 -10 23 -26 28 -36 12 -21 126 -27 163 -9 78 39 109 100 95
191 -9 62 -29 90 -81 113 -59 27 -110 25 -162 -6z"/>
<path d="M456 8564 c-20 -20 -20 -53 0 -82 29 -42 94 -15 94 40 0 51 -59 77
-94 42z"/>
<path d="M12295 8564 c-108 -56 -162 -206 -102 -286 87 -117 185 -146 287 -85
31 19 74 63 75 77 1 3 7 22 14 42 18 55 -2 150 -43 195 -60 66 -164 92 -231
57z"/>
<path d="M7180 8555 c0 -8 5 -15 10 -15 6 0 10 7 10 15 0 8 -4 15 -10 15 -5 0
-10 -7 -10 -15z"/>
<path d="M4034 8507 c-19 -16 -29 -37 -34 -71 -7 -45 -5 -50 25 -82 36 -38 72
-44 130 -20 44 19 65 78 45 127 -27 65 -115 89 -166 46z"/>
<path d="M7530 8502 c-19 -9 -47 -36 -64 -59 l-29 -42 17 -65 c16 -59 23 -69
64 -96 60 -39 109 -40 163 -2 61 43 86 130 55 191 -8 15 -27 42 -43 59 -24 28
-33 32 -78 32 -27 -1 -66 -9 -85 -18z"/>
<path d="M10962 8409 c-24 -12 -56 -40 -72 -65 -26 -36 -30 -52 -30 -108 0
-115 63 -185 175 -194 72 -5 104 9 166 75 31 33 36 45 38 94 3 75 -20 130 -74
174 -59 48 -138 57 -203 24z"/>
<path d="M2621 8354 c-12 -15 -21 -41 -21 -59 0 -46 27 -75 76 -82 35 -4 45
-1 67 21 57 57 17 145 -65 146 -28 0 -41 -6 -57 -26z"/>
<path d="M6141 8305 c-34 -29 -56 -84 -46 -117 29 -104 92 -144 171 -109 52
24 76 58 82 120 4 45 2 50 -35 89 -37 39 -44 42 -91 42 -39 0 -57 -6 -81 -25z"/>
<path d="M9597 8277 c-83 -47 -107 -141 -63 -239 38 -85 123 -118 211 -80 125
53 146 227 38 309 -48 37 -132 41 -186 10z"/>
<path d="M1227 8232 c-33 -20 -38 -36 -29 -81 6 -29 14 -36 41 -43 66 -18 105
43 65 100 -25 36 -46 42 -77 24z"/>
<path d="M4763 8151 c-40 -19 -53 -38 -59 -90 -6 -54 53 -121 106 -121 45 0
109 42 111 73 6 84 -11 119 -68 143 -40 17 -39 17 -90 -5z"/>
<path d="M8272 8152 c-54 -17 -102 -91 -102 -159 0 -40 31 -101 63 -126 82
-62 193 -33 242 63 32 61 5 154 -56 199 -34 25 -104 36 -147 23z"/>
<path d="M11706 8126 c-98 -27 -158 -152 -126 -266 11 -40 57 -100 80 -104 8
-2 28 -8 43 -14 77 -32 196 8 250 85 27 38 28 42 17 84 -7 24 -14 51 -15 60
-6 31 -43 94 -67 114 -57 49 -110 61 -182 41z"/>
<path d="M3388 8013 c-9 -2 -28 -22 -43 -44 -26 -40 -26 -40 -8 -77 24 -49 71
-76 114 -64 39 10 69 55 62 92 -11 59 -24 77 -62 89 -21 6 -40 10 -42 10 -2
-1 -11 -3 -21 -6z"/>
<path d="M6897 7983 c-32 -5 -95 -66 -103 -100 -4 -13 -3 -43 0 -67 6 -35 16
-53 47 -80 35 -33 45 -36 97 -36 52 0 61 3 89 33 41 42 55 79 48 132 -7 63
-13 73 -60 100 -40 24 -58 27 -118 18z"/>
<path d="M10329 7955 c-75 -46 -93 -87 -87 -190 6 -86 23 -114 93 -146 148
-68 290 55 254 221 -17 74 -94 152 -136 136 -8 -3 -20 -3 -26 1 -25 15 -44 11
-98 -22z"/>
<path d="M1963 7880 c-13 -5 -26 -24 -32 -47 -15 -53 10 -87 66 -91 47 -4 63
11 70 65 4 29 0 42 -14 55 -24 22 -62 29 -90 18z"/>
<path d="M5497 7820 c-107 -84 -24 -255 106 -219 87 24 112 144 42 209 -36 34
-111 39 -148 10z"/>
<path d="M8975 7824 c-53 -22 -105 -98 -105 -154 0 -17 9 -53 21 -80 26 -62
85 -101 143 -95 50 4 125 52 147 94 26 49 19 149 -13 183 -51 55 -133 77 -193
52z"/>
<path d="M12402 7775 c-122 -38 -186 -171 -138 -286 34 -82 129 -132 223 -117
92 14 150 74 168 171 16 84 -59 203 -146 235 -43 15 -52 14 -107 -3z"/>
<path d="M522 7728 c-29 -29 2 -108 41 -108 22 0 47 34 47 63 0 47 -57 76 -88
45z"/>
<path d="M7605 7687 c-47 -35 -62 -53 -76 -90 -10 -30 -10 -43 5 -89 24 -77
59 -102 147 -102 61 -1 69 2 93 27 14 15 26 30 26 33 0 3 7 12 15 20 17 17 20
73 6 120 -9 34 -44 75 -78 92 -36 20 -104 14 -138 -11z"/>
<path d="M4096 7651 c-53 -55 -33 -144 39 -180 41 -20 100 0 121 41 56 109
-78 225 -160 139z"/>
<path d="M11062 7622 c-39 -12 -89 -59 -112 -107 -70 -145 66 -312 223 -276
59 14 127 77 147 136 17 52 15 125 -5 155 -13 19 -71 60 -85 60 -5 0 -10 6
-10 14 0 22 -103 33 -158 18z"/>
<path d="M2718 7563 c-9 -2 -27 -20 -39 -39 -21 -34 -21 -36 -4 -74 18 -40 49
-60 94 -60 30 0 64 29 66 58 0 9 4 23 8 29 13 21 -10 49 -58 72 -24 11 -46 20
-47 20 -2 -1 -11 -3 -20 -6z"/>
<path d="M6223 7475 c-31 -32 -43 -54 -43 -75 0 -130 148 -186 235 -90 25 28
24 107 -2 150 -20 35 -68 60 -114 60 -25 0 -42 -10 -76 -45z"/>
<path d="M9695 7483 c-69 -36 -118 -112 -110 -171 8 -66 52 -134 102 -160 34
-18 102 -14 147 8 63 32 87 70 94 145 4 58 2 69 -21 104 -31 47 -104 91 -149
91 -18 -1 -46 -8 -63 -17z"/>
<path d="M1277 7392 c-38 -42 -6 -122 48 -122 27 0 65 39 65 67 0 28 -44 73
-73 73 -13 0 -31 -8 -40 -18z"/>
<path d="M11765 7348 c-16 -6 -37 -16 -45 -23 -8 -6 -22 -15 -31 -18 -29 -10
-69 -105 -69 -162 0 -133 122 -230 247 -196 53 14 94 49 128 107 25 43 26 49
16 106 -10 58 -44 128 -62 128 -5 0 -9 7 -9 15 0 8 -6 15 -14 15 -7 0 -19 7
-27 16 -8 9 -25 14 -45 12 -18 -1 -36 1 -40 5 -9 8 -11 8 -49 -5z"/>
<path d="M4864 7340 c-64 -26 -85 -123 -39 -178 32 -39 83 -49 130 -26 39 18
52 36 55 74 5 54 -1 73 -34 106 -35 35 -68 42 -112 24z"/>
<path d="M8350 7339 c-82 -33 -122 -135 -84 -216 35 -73 137 -114 200 -79 77
42 110 101 98 176 -16 96 -122 155 -214 119z"/>
<path d="M3459 7161 c-62 -62 -26 -151 62 -151 82 0 118 105 53 157 -40 32
-79 30 -115 -6z"/>
<path d="M6964 7165 c-118 -53 -106 -224 17 -264 46 -15 84 -6 131 31 47 37
72 117 45 144 -4 4 -7 14 -7 23 -1 24 -71 70 -116 75 -23 3 -52 -1 -70 -9z"/>
<path d="M10434 7171 c-94 -23 -151 -126 -123 -220 29 -97 130 -157 209 -124
121 49 167 139 125 241 -38 90 -113 126 -211 103z"/>
<path d="M2041 7034 c-25 -32 -26 -52 -4 -84 22 -33 33 -40 64 -40 63 0 91 79
44 125 -33 34 -77 33 -104 -1z"/>
<path d="M9054 7036 c-114 -31 -155 -201 -68 -282 70 -65 167 -63 235 5 49 48
67 109 50 159 -33 92 -127 143 -217 118z"/>
<path d="M5603 7015 c-57 -25 -86 -100 -59 -154 21 -40 77 -81 111 -81 37 0
94 37 107 69 26 69 1 143 -59 167 -40 17 -59 17 -100 -1z"/>
<path d="M12431 6999 c-78 -40 -129 -134 -117 -218 22 -163 222 -236 334 -121
54 55 71 97 66 162 -4 61 -37 136 -63 146 -9 3 -28 14 -42 24 -41 30 -125 34
-178 7z"/>
<path d="M613 6894 c-18 -46 5 -94 45 -94 24 0 52 31 52 57 0 43 -82 75 -97
37z"/>
<path d="M7701 6883 c-23 -3 -45 -16 -68 -41 -32 -35 -34 -40 -31 -103 3 -46
9 -71 21 -83 9 -10 17 -21 17 -26 0 -12 37 -31 80 -41 83 -20 170 56 170 148
0 53 -19 92 -60 127 -32 26 -48 28 -129 19z"/>
<path d="M11160 6882 c-83 -9 -168 -121 -157 -205 14 -98 78 -166 166 -175 66
-6 116 12 162 60 39 41 57 88 55 143 -2 46 -36 124 -57 130 -11 4 -19 10 -19
14 0 7 -53 26 -95 34 -11 2 -36 2 -55 -1z"/>
<path d="M4225 6856 c-45 -20 -65 -48 -67 -94 -2 -54 22 -88 71 -103 71 -21
127 18 132 92 3 42 -30 95 -68 110 -30 11 -31 11 -68 -5z"/>
<path d="M2820 6743 c-23 -9 -50 -40 -52 -60 -4 -54 3 -74 35 -93 41 -25 68
-25 99 0 51 39 36 119 -26 145 -20 8 -37 15 -38 14 -2 0 -10 -3 -18 -6z"/>
<path d="M6319 6705 c-43 -28 -49 -41 -49 -102 0 -39 5 -50 39 -84 50 -51 98
-53 159 -10 66 49 69 124 6 187 -44 43 -100 47 -155 9z"/>
<path d="M9748 6717 c-89 -40 -131 -155 -89 -242 30 -63 96 -105 163 -105 48
1 112 33 142 73 22 29 27 45 27 94 -1 77 -3 88 -29 122 -43 59 -148 87 -214
58z"/>
<path d="M1371 6564 c-12 -15 -21 -34 -21 -44 0 -29 39 -70 66 -70 27 0 74 40
74 63 0 23 -56 77 -78 77 -11 0 -30 -12 -41 -26z"/>
<path d="M4953 6573 c-39 -8 -73 -59 -73 -110 0 -38 5 -50 35 -80 33 -33 38
-35 83 -28 80 12 103 35 104 104 0 48 -15 77 -55 101 -31 19 -49 22 -94 13z"/>
<path d="M8404 6561 c-79 -36 -108 -104 -80 -188 15 -46 45 -83 66 -83 6 0 10
-4 10 -10 0 -13 101 -13 136 0 111 42 118 239 10 284 -45 19 -95 18 -142 -3z"/>
<path d="M11814 6531 c-58 -31 -85 -60 -105 -113 -23 -64 -24 -94 -3 -144 17
-40 47 -72 99 -105 37 -23 118 -25 168 -4 60 25 131 133 118 180 -2 6 -4 24
-5 40 -2 35 -51 125 -69 125 -7 0 -23 9 -37 20 -31 25 -121 25 -166 1z"/>
<path d="M0 6387 c0 -35 4 -47 12 -45 19 7 21 50 4 73 -14 19 -15 17 -16 -28z"/>
<path d="M3565 6416 c-41 -18 -53 -35 -51 -76 2 -49 33 -87 78 -95 34 -6 41
-4 72 27 21 21 33 42 31 54 -2 10 -4 25 -4 32 -1 21 -57 72 -78 72 -10 -1 -32
-7 -48 -14z"/>
<path d="M7042 6399 c-88 -44 -110 -125 -55 -202 54 -74 139 -84 209 -23 31
27 37 39 41 82 7 72 -27 125 -93 148 -59 20 -51 20 -102 -5z"/>
<path d="M10447 6339 c-51 -48 -77 -108 -72 -162 4 -52 50 -116 98 -138 65
-29 116 -25 173 14 96 65 117 135 68 232 -34 67 -64 85 -155 92 l-65 5 -47
-43z"/>
<path d="M2130 6250 c-42 -42 -5 -130 55 -130 54 0 91 75 57 118 -26 34 -84
40 -112 12z"/>
<path d="M5668 6243 c-30 -19 -58 -68 -58 -103 0 -68 79 -138 137 -121 108 31
139 133 63 206 -37 35 -103 43 -142 18z"/>
<path d="M9113 6224 c-60 -28 -90 -65 -99 -122 -19 -118 59 -200 179 -190 73
6 120 43 143 110 29 88 -2 158 -90 201 -66 32 -67 32 -133 1z"/>
<path d="M12530 6217 c-46 -15 -143 -115 -136 -141 3 -11 0 -28 -5 -39 -12
-22 4 -95 30 -137 55 -88 167 -119 258 -72 110 57 148 210 77 310 -49 68 -149
104 -224 79z"/>
<path d="M697 6112 c-24 -26 -22 -78 2 -92 47 -24 91 0 91 49 0 49 -62 77 -93
43z"/>
<path d="M4277 6089 c-23 -13 -47 -62 -47 -94 0 -34 25 -82 49 -95 36 -18 98
-12 127 14 24 20 28 31 28 76 0 47 -4 56 -32 81 -34 31 -89 39 -125 18z"/>
<path d="M7798 6090 c-80 -25 -130 -97 -118 -174 4 -24 14 -51 23 -61 9 -9 17
-20 17 -25 0 -18 64 -42 111 -42 60 1 101 29 129 87 15 30 19 53 14 79 -8 55
-53 123 -83 130 -14 3 -35 8 -46 10 -11 3 -32 1 -47 -4z"/>
<path d="M11209 6083 c-40 -6 -115 -81 -128 -128 -15 -56 -14 -77 8 -127 35
-77 81 -115 153 -128 56 -11 113 11 164 61 34 34 44 52 53 100 11 56 11 63
-13 113 -44 92 -119 127 -237 109z"/>
<path d="M2892 5930 c-31 -13 -55 -71 -42 -104 12 -31 52 -58 87 -58 35 0 85
53 79 85 -3 12 -5 27 -5 34 -1 14 -63 53 -82 52 -8 0 -24 -4 -37 -9z"/>
<path d="M9850 5929 c-77 -30 -126 -88 -130 -156 -5 -75 6 -100 74 -164 65
-62 196 -36 246 48 34 58 38 131 10 182 -41 72 -136 115 -200 90z"/>
<path d="M6399 5903 c-98 -82 -48 -223 79 -223 34 0 90 36 107 70 59 115 -88
235 -186 153z"/>
<path d="M11916 5792 c-31 -4 -98 -45 -129 -80 -22 -24 -38 -81 -39 -134 0
-26 10 -54 32 -88 47 -74 75 -90 154 -90 84 0 136 25 173 82 25 36 28 51 28
119 0 77 0 78 -40 119 -22 23 -47 46 -56 50 -26 14 -91 26 -123 22z"/>
<path d="M1448 5773 c-9 -10 -15 -29 -13 -43 1 -14 3 -31 4 -37 0 -7 13 -20
27 -29 23 -16 28 -16 60 -1 29 14 34 22 34 50 0 39 -23 64 -66 73 -21 4 -34 1
-46 -13z"/>
<path d="M5052 5770 c-68 -16 -102 -73 -82 -139 21 -74 85 -106 154 -77 39 16
66 62 66 111 0 34 -27 85 -44 85 -7 0 -19 7 -26 15 -14 16 -19 17 -68 5z"/>
<path d="M8464 5758 c-43 -34 -62 -60 -68 -93 -17 -97 52 -195 137 -195 87 0
151 46 168 120 17 74 -17 142 -88 179 -38 20 -117 14 -149 -11z"/>
<path d="M22 5628 c-17 -17 -15 -64 4 -82 25 -25 51 -19 71 18 15 27 6 52 -23
65 -31 14 -37 14 -52 -1z"/>
<path d="M10515 5611 c-48 -22 -79 -54 -100 -103 -17 -41 -20 -114 -6 -123 5
-3 12 -18 16 -34 6 -29 48 -66 99 -88 30 -14 85 -15 124 -5 31 9 92 70 108
109 18 42 18 111 -1 147 -8 15 -15 32 -15 38 0 12 -29 42 -60 60 -36 21 -117
21 -165 -1z"/>
<path d="M3625 5580 c-42 -82 14 -166 98 -145 60 15 82 93 42 147 -17 24 -27
27 -72 28 -48 0 -54 -2 -68 -30z"/>
<path d="M7115 5591 c-45 -27 -62 -51 -69 -96 -15 -92 66 -172 159 -158 119
19 160 158 71 240 -30 28 -43 33 -83 33 -29 0 -60 -7 -78 -19z"/>
<path d="M9206 5482 c-3 -5 -19 -12 -35 -15 -40 -8 -97 -61 -111 -103 -7 -20
-9 -52 -5 -76 18 -105 88 -158 189 -143 117 18 179 200 92 271 -17 14 -39 32
-49 40 -9 8 -25 14 -35 14 -10 0 -23 5 -29 11 -7 7 -13 7 -17 1z"/>
<path d="M2242 5450 c-66 -27 -38 -149 34 -150 60 -1 96 93 54 138 -22 23 -50
27 -88 12z"/>
<path d="M5774 5449 c-56 -16 -96 -108 -69 -158 44 -86 146 -98 203 -26 17 21
22 41 22 86 0 33 -4 59 -10 59 -5 0 -19 9 -29 19 -24 24 -75 33 -117 20z"/>
<path d="M12595 5441 c-102 -25 -158 -101 -157 -211 2 -126 83 -200 208 -187
52 5 88 22 132 61 21 18 22 27 22 144 l0 124 -32 30 c-51 47 -96 57 -173 39z"/>
<path d="M7805 5328 c-46 -23 -88 -82 -86 -118 1 -14 2 -37 2 -52 0 -27 51
-88 75 -88 7 0 14 -4 16 -9 5 -15 80 -16 120 -1 111 41 104 228 -11 276 -44
18 -68 17 -116 -8z"/>
<path d="M787 5292 c-47 -52 27 -133 75 -84 28 27 18 87 -15 96 -34 9 -43 7
-60 -12z"/>
<path d="M4370 5284 c-30 -19 -50 -57 -50 -97 0 -42 36 -96 68 -103 15 -3 32
-7 38 -9 20 -6 80 42 94 74 20 49 3 102 -40 123 -55 26 -83 29 -110 12z"/>
<path d="M11232 5269 c-84 -33 -131 -121 -117 -222 13 -89 99 -157 200 -157
26 0 99 40 125 69 37 41 53 85 52 143 -2 75 -20 108 -79 146 -65 42 -114 47
-181 21z"/>
<path d="M6454 5131 c-80 -48 -90 -149 -21 -207 49 -41 143 -27 181 28 23 33
21 109 -5 142 -40 51 -106 67 -155 37z"/>
<path d="M9885 5138 c-36 -12 -82 -53 -100 -88 -12 -22 -21 -92 -15 -112 2 -5
3 -11 4 -15 9 -37 40 -86 56 -90 11 -3 20 -9 20 -14 0 -5 8 -9 18 -9 10 0 23
-5 28 -10 14 -14 105 4 140 27 43 28 74 86 74 140 0 64 -26 111 -84 151 -51
34 -87 39 -141 20z"/>
<path d="M2984 5119 c-48 -24 -58 -102 -19 -139 34 -32 78 -30 113 3 26 25 29
38 23 94 -3 31 -82 59 -117 42z"/>
<path d="M8540 4989 c-145 -58 -130 -264 22 -298 60 -14 112 4 150 50 30 37
53 126 37 145 -5 6 -7 13 -4 16 3 2 -10 20 -28 40 -46 50 -120 70 -177 47z"/>
<path d="M11991 4973 c-106 -13 -201 -171 -158 -263 26 -58 78 -109 120 -121
95 -25 187 8 232 86 66 113 27 242 -87 290 -37 15 -43 15 -107 8z"/>
<path d="M1552 4954 c-45 -31 -16 -124 38 -124 12 0 32 11 45 25 63 63 -10
151 -83 99z"/>
<path d="M5052 4943 c-56 -49 -62 -117 -14 -171 35 -39 87 -48 131 -21 37 22
51 54 51 113 0 61 -32 95 -98 102 -32 4 -44 0 -70 -23z"/>
<path d="M7162 4807 c-70 -22 -105 -106 -73 -172 38 -79 78 -103 148 -90 52 9
79 31 103 81 34 69 9 137 -63 176 -36 19 -67 21 -115 5z"/>
<path d="M105 4786 c-14 -21 -14 -28 -3 -46 18 -29 54 -36 78 -15 25 23 25 47
2 68 -26 24 -59 21 -77 -7z"/>
<path d="M10580 4784 c-30 -14 -56 -27 -58 -29 -16 -15 -39 -112 -36 -146 9
-72 47 -139 80 -139 7 0 14 -5 16 -11 5 -14 86 -31 112 -22 11 4 27 8 34 9 26
5 63 35 89 75 22 34 27 54 30 115 2 69 1 75 -22 90 -14 9 -25 22 -25 29 0 23
-48 45 -107 50 -49 5 -67 1 -113 -21z"/>
<path d="M3705 4780 c-31 -12 -43 -31 -51 -78 -6 -37 -3 -44 24 -72 47 -47
109 -35 141 27 16 32 14 44 -16 91 -28 43 -52 51 -98 32z"/>
<path d="M5828 4663 c-17 -3 -38 -18 -53 -37 -71 -93 -22 -206 90 -206 42 0
52 5 81 36 26 26 34 44 34 71 0 83 -73 148 -152 136z"/>
<path d="M9258 4653 c-32 -5 -96 -65 -114 -109 -20 -47 -17 -87 7 -131 40 -73
98 -103 172 -89 33 6 97 58 97 79 0 6 7 18 15 27 30 33 34 72 11 120 -34 71
-111 113 -188 103z"/>
<path d="M2304 4640 c-28 -11 -54 -48 -54 -76 0 -37 37 -74 74 -74 72 0 98 88
41 138 -29 24 -30 25 -61 12z"/>
<path d="M12635 4628 c-67 -37 -125 -120 -127 -181 -1 -72 18 -119 67 -167
l46 -45 73 0 c109 0 106 -6 106 210 0 158 -2 184 -16 189 -26 10 -128 6 -149
-6z"/>
<path d="M7923 4507 c-51 -15 -86 -44 -108 -91 -15 -30 -16 -43 -6 -81 20 -79
68 -116 151 -117 58 0 69 6 109 55 27 35 30 45 26 90 -5 73 -28 112 -79 136
-23 12 -44 21 -47 20 -2 -1 -23 -6 -46 -12z"/>
<path d="M843 4468 c-20 -25 -24 -66 -8 -82 28 -28 55 -29 81 -5 28 26 30 46
8 77 -17 24 -65 30 -81 10z"/>
<path d="M4416 4459 c-30 -27 -48 -86 -37 -127 4 -15 22 -37 40 -49 100 -68
212 62 133 154 -38 45 -98 54 -136 22z"/>
<path d="M11323 4463 c-13 -2 -42 -23 -65 -46 -53 -51 -72 -108 -63 -180 6
-43 15 -58 59 -102 38 -39 61 -53 91 -58 21 -3 44 -3 49 2 6 5 27 11 48 15 24
4 48 19 71 45 47 53 56 70 63 132 5 48 2 59 -25 101 -53 83 -124 111 -228 91z"/>
<path d="M3024 4333 c-20 -14 -34 -51 -34 -86 0 -27 7 -41 31 -61 40 -34 71
-33 106 3 41 40 39 86 -4 129 -16 16 -83 26 -99 15z"/>
<path d="M9953 4310 c-58 -30 -120 -129 -108 -174 10 -36 40 -96 48 -96 4 0 7
-6 7 -13 0 -21 72 -49 127 -50 88 -1 166 75 167 163 2 134 -129 227 -241 170z"/>
<path d="M6550 4302 c-57 -27 -87 -86 -76 -147 11 -57 79 -102 138 -91 109 19
149 164 62 221 -27 18 -102 28 -124 17z"/>
<path d="M12028 4225 c-48 -16 -75 -37 -118 -89 -33 -40 -38 -51 -39 -105 0
-33 3 -63 9 -66 5 -3 10 -17 10 -31 0 -13 9 -33 20 -44 11 -11 20 -23 20 -28
0 -15 106 -56 139 -53 56 5 134 44 163 83 40 52 56 139 36 188 -24 57 -39 77
-83 109 -55 40 -110 53 -157 36z"/>
<path d="M8655 4173 c-11 -3 -24 -9 -29 -14 -6 -5 -18 -9 -27 -9 -9 0 -29 -17
-45 -37 -25 -33 -28 -46 -27 -100 1 -42 7 -70 20 -87 23 -32 93 -66 135 -66
45 0 108 38 132 79 28 48 28 130 0 168 -31 43 -112 76 -159 66z"/>
<path d="M1605 4145 c-50 -50 -16 -133 50 -121 64 13 75 79 22 120 -41 32 -42
32 -72 1z"/>
<path d="M5128 4079 c-35 -36 -38 -44 -32 -77 7 -46 33 -83 67 -100 37 -18
101 2 129 41 42 58 23 129 -44 163 -47 24 -78 18 -120 -27z"/>
<path d="M10688 4040 c-40 -12 -86 -48 -103 -81 -27 -52 -28 -128 -2 -179 37
-70 126 -111 197 -88 71 22 150 106 150 160 0 129 -122 223 -242 188z"/>
<path d="M176 3995 c-22 -17 -26 -66 -6 -89 7 -9 24 -16 39 -16 37 0 56 48 33
82 -28 41 -38 44 -66 23z"/>
<path d="M7255 3976 c-50 -22 -85 -64 -86 -105 -3 -80 13 -117 62 -142 68 -34
131 -20 183 41 48 58 28 159 -38 193 -46 24 -88 28 -121 13z"/>
<path d="M3771 3911 c-49 -52 -44 -127 11 -158 39 -21 68 -15 105 22 32 32 35
40 30 73 -4 20 -11 38 -17 40 -5 2 -10 10 -10 17 0 14 -20 24 -63 32 -22 3
-34 -3 -56 -26z"/>
<path d="M9295 3897 c-27 -17 -38 -28 -64 -65 -20 -29 -23 -42 -19 -102 3 -60
7 -73 33 -101 48 -49 81 -62 146 -56 46 4 64 11 92 37 95 86 75 246 -34 279
-63 19 -131 23 -154 8z"/>
<path d="M12734 3901 c-49 -8 -90 -40 -134 -103 -28 -41 -33 -56 -33 -111 -1
-76 19 -124 65 -159 31 -23 51 -30 136 -45 l32 -5 0 216 c0 167 -3 216 -12
215 -7 -1 -31 -5 -54 -8z"/>
<path d="M5876 3795 c-54 -50 -61 -122 -18 -174 23 -28 36 -34 78 -38 63 -6
94 11 119 68 17 37 17 45 4 82 -28 80 -127 114 -183 62z"/>
<path d="M2357 3741 c-9 -16 -17 -41 -17 -56 0 -22 8 -30 46 -47 46 -20 47
-20 73 -1 32 24 38 61 16 102 -14 27 -21 31 -58 31 -37 0 -45 -4 -60 -29z"/>
<path d="M11387 3746 c-51 -18 -69 -37 -101 -99 -23 -44 -26 -59 -21 -102 9
-64 39 -129 68 -142 80 -38 116 -45 169 -32 80 21 142 95 151 183 7 56 -44
150 -98 181 -48 28 -108 32 -168 11z"/>
<path d="M7979 3741 c-67 -21 -92 -52 -102 -129 -10 -82 45 -154 127 -166 53
-8 89 7 135 56 33 35 54 119 32 126 -6 2 -11 10 -11 18 0 8 -19 35 -41 59 -35
38 -47 45 -78 44 -20 0 -48 -4 -62 -8z"/>
<path d="M4494 3596 c-36 -36 -41 -62 -23 -115 16 -46 77 -74 126 -58 108 37
84 207 -29 207 -32 0 -47 -7 -74 -34z"/>
<path d="M940 3580 c-35 -35 -20 -83 32 -95 19 -5 32 -1 47 14 26 26 27 55 1
81 -11 11 -29 20 -40 20 -11 0 -29 -9 -40 -20z"/>
<path d="M10035 3592 c-71 -25 -126 -99 -127 -173 -1 -27 4 -55 10 -61 7 -7
12 -21 12 -31 0 -43 86 -87 169 -87 38 0 122 43 141 72 33 52 38 70 36 121 -3
61 -24 95 -82 135 -37 25 -121 38 -159 24z"/>
<path d="M6641 3574 c-99 -43 -121 -147 -44 -214 33 -29 41 -32 85 -28 140 14
156 197 22 248 -14 6 -26 10 -27 10 -1 -1 -17 -7 -36 -16z"/>
<path d="M3105 3455 c-55 -54 -3 -163 70 -149 85 16 101 133 21 162 -47 17
-64 15 -91 -13z"/>
<path d="M8715 3445 c-5 -2 -22 -6 -36 -9 -15 -3 -39 -24 -58 -52 -31 -42 -33
-50 -28 -103 6 -72 18 -92 80 -127 51 -30 55 -31 124 -13 81 21 133 141 94
217 -36 71 -112 108 -176 87z"/>
<path d="M12125 3413 c-63 -17 -145 -125 -145 -192 0 -68 35 -145 81 -176 44
-32 118 -47 162 -34 77 22 167 131 167 202 0 29 -53 134 -81 160 -35 32 -132
54 -184 40z"/>
<path d="M5214 3374 c-44 -46 -48 -109 -10 -159 28 -36 88 -53 128 -35 83 38
88 189 7 217 -61 21 -89 16 -125 -23z"/>
<path d="M1684 3254 c-23 -56 2 -104 56 -104 64 0 87 98 30 127 -45 23 -70 16
-86 -23z"/>
<path d="M7318 3250 c-94 -51 -94 -181 -1 -240 42 -27 46 -27 91 -15 67 17 89
31 107 65 29 55 13 132 -37 178 -36 33 -112 39 -160 12z"/>
<path d="M10770 3225 c-14 -8 -34 -18 -45 -24 -39 -18 -68 -60 -76 -108 -4
-27 -3 -52 2 -57 5 -6 9 -24 9 -41 0 -56 84 -123 163 -131 46 -4 111 21 144
57 82 90 51 260 -55 305 -44 18 -110 18 -142 -1z"/>
<path d="M3870 3223 c-43 -18 -68 -107 -37 -137 16 -16 72 -46 86 -46 6 0 26
14 46 31 30 27 35 37 35 74 0 35 -5 48 -26 64 -26 20 -72 26 -104 14z"/>
<path d="M270 3088 c-25 -27 -25 -40 -2 -61 39 -36 82 -11 82 46 0 17 -7 27
-22 31 -33 9 -35 8 -58 -16z"/>
<path d="M5960 3087 c-78 -39 -73 -179 8 -216 49 -23 92 -14 135 29 39 39 40
42 34 92 -9 72 -44 108 -106 108 -25 0 -57 -6 -71 -13z"/>
<path d="M9438 3085 c-78 -17 -87 -21 -99 -47 -5 -13 -17 -34 -25 -48 -15 -25
-14 -125 2 -152 39 -70 123 -104 206 -86 38 9 44 13 78 63 56 81 34 202 -47
258 -22 15 -43 26 -49 26 -5 -1 -35 -7 -66 -14z"/>
<path d="M12775 3059 c-32 -13 -61 -41 -90 -88 -41 -66 -41 -150 0 -210 29
-42 97 -92 110 -80 3 3 4 92 3 196 -3 186 -3 190 -23 182z"/>
<path d="M2466 3045 c-50 -21 -61 -81 -21 -120 30 -31 77 -33 105 -5 56 56
-11 156 -84 125z"/>
<path d="M8100 2941 c-81 -16 -117 -61 -116 -146 1 -71 26 -113 81 -139 102
-49 231 54 206 165 -9 41 -54 99 -77 99 -7 0 -14 4 -16 9 -5 14 -40 19 -78 12z"/>
<path d="M4594 2921 c-50 -23 -69 -62 -59 -123 8 -50 24 -71 66 -88 25 -11 36
-10 70 5 75 34 92 116 37 178 -42 45 -63 51 -114 28z"/>
<path d="M11488 2888 c-25 -7 -53 -26 -82 -59 -37 -41 -45 -57 -51 -104 -6
-48 -3 -61 21 -104 33 -62 58 -84 110 -99 60 -17 84 -15 140 13 53 26 103 90
105 135 3 46 -3 95 -12 105 -5 5 -9 15 -9 23 0 24 -41 74 -56 68 -8 -3 -14 -1
-14 3 0 12 -57 31 -89 30 -14 -1 -43 -6 -63 -11z"/>
<path d="M1021 2871 c-28 -28 -27 -75 1 -95 32 -23 63 -20 82 9 21 31 20 48
-1 73 -28 32 -59 36 -82 13z"/>
<path d="M10155 2749 c-42 -12 -99 -62 -119 -103 -58 -123 49 -266 184 -245
174 27 203 251 43 342 -34 18 -61 20 -108 6z"/>
<path d="M6682 2714 c-74 -80 -38 -211 62 -230 23 -4 47 1 79 16 85 40 99 146
29 213 -24 23 -40 28 -85 31 -51 2 -58 0 -85 -30z"/>
<path d="M3187 2720 c-64 -51 -28 -160 53 -160 10 0 32 12 49 26 26 21 31 33
31 69 0 35 -5 46 -27 61 -39 26 -76 27 -106 4z"/>
<path d="M12198 2620 c-38 -7 -106 -56 -107 -77 -1 -7 -5 -13 -10 -13 -12 0
-23 -56 -22 -113 1 -69 40 -136 94 -164 36 -18 105 -27 120 -15 7 5 24 12 39
16 39 9 95 61 107 99 25 84 22 117 -20 202 -26 53 -115 82 -201 65z"/>
<path d="M8785 2584 c-126 -65 -117 -247 15 -287 81 -25 168 16 201 96 15 37
-1 129 -28 160 -41 45 -132 61 -188 31z"/>
<path d="M1777 2548 c-40 -35 -44 -69 -11 -101 32 -32 62 -34 92 -7 37 35 23
110 -20 110 -8 0 -19 5 -25 11 -7 7 -18 4 -36 -13z"/>
<path d="M5344 2531 c-40 -18 -74 -67 -74 -105 0 -29 28 -84 48 -95 56 -30
139 -12 161 35 27 61 0 147 -55 170 -40 17 -31 17 -80 -5z"/>
<path d="M10845 2434 c-16 -8 -47 -31 -67 -51 -84 -82 -60 -231 46 -285 47
-24 127 -20 176 8 70 42 111 165 77 231 -20 38 -81 96 -109 105 -41 11 -92 8
-123 -8z"/>
<path d="M7415 2394 c-44 -23 -74 -72 -76 -124 -3 -65 21 -103 75 -124 80 -30
158 0 191 75 23 49 14 93 -28 143 -29 34 -39 39 -82 42 -32 3 -61 -2 -80 -12z"/>
<path d="M353 2380 c-31 -13 -26 -67 8 -85 54 -29 106 38 61 78 -21 19 -36 20
-69 7z"/>
<path d="M3953 2322 c-43 -37 -51 -82 -22 -121 32 -44 69 -57 107 -37 68 35
79 91 31 149 -37 45 -71 48 -116 9z"/>
<path d="M9514 2293 c-33 -4 -89 -50 -117 -95 -18 -30 -23 -113 -7 -123 6 -3
10 -14 10 -25 0 -38 112 -108 153 -95 7 2 24 6 38 9 30 6 68 39 93 80 15 23
17 42 13 95 -3 36 -10 67 -16 69 -6 2 -11 9 -11 14 0 14 -60 68 -74 68 -6 0
-20 2 -31 4 -11 2 -34 1 -51 -1z"/>
<path d="M6102 2240 c-95 -21 -133 -148 -64 -212 73 -68 202 -21 202 74 0 59
-22 100 -66 124 -29 16 -47 19 -72 14z"/>
<path d="M12780 2237 c-8 -7 -25 -30 -37 -52 -41 -76 -27 -180 31 -234 l26
-24 0 161 c0 89 -1 162 -2 162 -2 0 -10 -6 -18 -13z"/>
<path d="M2548 2163 c-21 -25 -30 -79 -16 -108 8 -17 23 -27 52 -33 38 -9 43
-7 69 19 32 35 35 70 6 110 -16 23 -28 29 -58 29 -24 0 -44 -7 -53 -17z"/>
<path d="M8154 2138 c-54 -28 -74 -48 -91 -85 -15 -37 -9 -105 14 -141 38 -60
124 -78 190 -40 47 28 60 43 73 91 20 71 -32 177 -88 177 -13 0 -31 4 -41 10
-13 6 -29 3 -57 -12z"/>
<path d="M11535 2102 c-54 -26 -102 -91 -110 -151 -20 -149 104 -253 245 -206
40 13 58 27 85 64 43 59 58 116 43 162 -6 19 -12 39 -14 46 -1 6 -28 30 -59
54 -68 51 -127 61 -190 31z"/>
<path d="M4705 2036 c-58 -25 -84 -86 -61 -141 44 -104 196 -78 196 34 0 56
-16 85 -56 105 -41 19 -40 19 -79 2z"/>
<path d="M1128 1973 c-18 -21 -14 -69 7 -89 19 -20 59 -17 78 4 20 22 22 73 5
90 -18 18 -73 15 -90 -5z"/>
<path d="M10224 1957 c-118 -34 -169 -158 -105 -258 30 -49 72 -74 138 -85 33
-5 47 -2 79 19 81 53 104 89 104 160 0 64 -62 149 -117 162 -10 2 -27 6 -38 9
-11 3 -39 -1 -61 -7z"/>
<path d="M6779 1928 c-77 -43 -78 -158 -3 -217 32 -25 74 -27 119 -5 47 22 68
59 66 112 -4 110 -89 162 -182 110z"/>
<path d="M3294 1862 c-46 -39 -46 -103 -1 -141 20 -16 83 -17 102 -1 19 16 37
83 29 106 -11 30 -46 54 -79 54 -16 0 -39 -8 -51 -18z"/>
<path d="M12205 1824 c-43 -29 -55 -41 -74 -74 -16 -28 -26 -127 -17 -164 8
-32 60 -93 96 -111 66 -34 195 -10 245 45 22 25 44 87 45 128 0 37 -24 118
-43 143 -45 60 -185 79 -252 33z"/>
<path d="M8855 1795 c-99 -57 -111 -203 -23 -268 37 -28 137 -36 150 -13 5 9
17 16 28 16 22 0 60 45 60 71 0 10 5 21 10 24 19 12 11 77 -15 111 -56 73
-143 98 -210 59z"/>
<path d="M5410 1732 c-8 -3 -26 -16 -40 -29 -21 -19 -25 -32 -24 -77 0 -46 4
-57 30 -79 65 -58 148 -41 178 37 15 39 15 48 3 78 -8 19 -25 41 -38 49 -27
18 -86 29 -109 21z"/>
<path d="M1902 1680 c-32 -13 -56 -73 -41 -103 16 -29 28 -37 62 -37 66 0 93
90 38 129 -16 12 -31 21 -33 20 -1 0 -13 -4 -26 -9z"/>
<path d="M10925 1648 c-68 -38 -123 -137 -109 -195 9 -34 44 -91 71 -116 11
-9 45 -23 76 -29 55 -12 56 -11 114 24 50 31 61 44 81 92 29 71 22 120 -23
174 -48 55 -155 81 -210 50z"/>
<path d="M7507 1606 c-53 -19 -75 -42 -88 -90 -22 -82 29 -161 111 -171 148
-19 216 169 91 252 -39 26 -60 28 -114 9z"/>
<path d="M4027 1516 c-27 -24 -37 -42 -37 -64 0 -33 21 -80 42 -93 15 -10 60
-12 83 -3 17 7 55 74 55 99 0 25 -30 65 -61 81 -38 19 -40 19 -82 -20z"/>
<path d="M9594 1502 c-40 -13 -103 -73 -115 -109 -23 -70 14 -168 74 -196 46
-22 121 -29 149 -14 50 27 68 43 68 58 0 9 6 22 14 28 21 17 30 85 17 124 -6
18 -28 50 -49 70 -31 31 -47 38 -88 42 -27 2 -59 1 -70 -3z"/>
<path d="M461 1478 c-26 -70 53 -109 93 -46 7 12 5 23 -7 42 -23 34 -74 37
-86 4z"/>
<path d="M6145 1432 c-39 -24 -54 -43 -65 -83 -15 -52 5 -101 51 -130 42 -25
60 -26 114 -3 89 37 97 163 13 214 -41 25 -74 25 -113 2z"/>
<path d="M12785 1378 c-6 -40 0 -107 11 -117 2 -2 4 32 4 77 0 45 -2 82 -4 82
-3 0 -8 -19 -11 -42z"/>
<path d="M11650 1378 c-86 -24 -140 -100 -139 -198 0 -43 5 -63 27 -94 38 -56
70 -75 130 -83 171 -20 278 160 180 305 -47 69 -115 93 -198 70z"/>
<path d="M2621 1344 c-44 -56 -11 -134 55 -134 39 0 74 36 74 76 0 37 -10 52
-45 70 -40 20 -61 17 -84 -12z"/>
<path d="M8224 1330 c-12 -5 -35 -25 -53 -46 -27 -33 -31 -46 -31 -96 0 -37 5
-62 15 -72 8 -8 15 -19 15 -24 0 -6 22 -21 50 -35 43 -21 55 -23 97 -16 49 9
92 46 113 97 15 35 12 98 -5 112 -8 7 -15 18 -16 24 0 6 -14 22 -31 35 -33 26
-112 37 -154 21z"/>
<path d="M4763 1230 c-40 -24 -53 -48 -53 -100 0 -60 41 -100 102 -100 24 0
51 6 60 13 45 37 64 112 33 137 -8 7 -15 18 -15 25 0 13 -58 45 -82 45 -7 0
-27 -9 -45 -20z"/>
<path d="M10258 1183 c-82 -65 -105 -172 -53 -251 58 -87 174 -104 255 -36 44
38 62 78 63 149 1 51 -2 66 -23 93 -14 17 -37 37 -52 44 -16 7 -28 16 -28 20
0 5 -29 8 -63 8 -54 0 -69 -4 -99 -27z"/>
<path d="M1206 1159 c-28 -40 24 -113 68 -96 25 10 41 54 30 84 -12 35 -76 43
-98 12z"/>
<path d="M6868 1140 c-41 -32 -60 -82 -49 -130 11 -48 30 -73 76 -94 29 -14
37 -14 79 0 54 19 82 50 91 103 8 46 -11 88 -51 120 -36 28 -112 29 -146 1z"/>
<path d="M12309 1076 c-59 -27 -73 -39 -110 -94 -27 -40 -30 -51 -28 -116 2
-89 18 -117 83 -150 86 -44 181 -32 241 30 37 40 53 79 60 155 5 60 4 66 -24
99 -28 35 -84 68 -146 88 -24 7 -40 5 -76 -12z"/>
<path d="M3373 1060 c-29 -12 -55 -63 -47 -94 13 -55 71 -81 135 -61 46 15 51
94 10 136 -30 29 -58 35 -98 19z"/>
<path d="M9000 1041 c-76 -16 -130 -68 -137 -135 -7 -58 1 -87 34 -126 32 -38
63 -52 121 -52 99 0 167 93 153 210 -3 25 -115 118 -133 111 -2 -1 -19 -4 -38
-8z"/>
<path d="M5515 971 c-41 -9 -75 -62 -75 -118 0 -38 6 -51 34 -79 39 -39 82
-45 135 -18 32 16 61 67 61 106 0 34 -29 83 -59 101 -30 18 -46 19 -96 8z"/>
<path d="M11050 882 c-45 -6 -88 -32 -124 -74 -32 -37 -36 -47 -36 -100 0 -39
7 -72 20 -98 50 -98 211 -108 283 -18 15 18 27 36 26 41 0 4 8 20 17 36 16 26
15 31 -1 81 -31 93 -101 144 -185 132z"/>
<path d="M1973 865 c-55 -24 -55 -101 1 -126 27 -13 71 4 89 32 13 22 1 64
-25 89 -25 23 -24 23 -65 5z"/>
<path d="M7604 845 c-64 -28 -106 -108 -90 -171 10 -37 56 -80 100 -92 55 -16
100 -4 137 34 26 27 33 43 37 88 4 48 1 59 -24 91 -41 54 -104 74 -160 50z"/>
<path d="M4140 773 c-62 -23 -78 -91 -35 -147 35 -46 86 -48 126 -5 50 54 37
125 -28 150 -27 10 -40 10 -63 2z"/>
<path d="M9654 706 c-67 -30 -111 -94 -108 -159 3 -83 58 -142 141 -153 65 -8
110 9 151 58 43 50 50 75 36 129 -17 65 -40 97 -87 119 -47 23 -89 25 -133 6z"/>
<path d="M558 689 c-42 -24 -2 -107 44 -90 33 12 44 35 32 68 -10 31 -46 41
-76 22z"/>
<path d="M6244 670 c-11 -5 -33 -22 -47 -40 -32 -37 -37 -111 -11 -148 60 -86
204 -53 220 50 15 87 -82 169 -162 138z"/>
<path d="M11676 591 c-63 -36 -97 -89 -103 -161 -5 -51 -2 -65 20 -102 44 -75
93 -103 166 -96 91 9 161 78 179 177 13 71 5 100 -38 143 -63 63 -155 79 -224
39z"/>
<path d="M2707 551 c-24 -41 -21 -70 9 -97 55 -52 144 -12 130 57 -10 49 -33
69 -80 69 -35 0 -44 -4 -59 -29z"/>
<path d="M8327 540 c-100 -19 -144 -147 -81 -234 11 -14 37 -35 59 -45 34 -17
47 -19 85 -10 118 27 162 169 78 253 -17 17 -81 47 -95 45 -4 -1 -25 -5 -46
-9z"/>
<path d="M4852 472 c-26 -17 -62 -77 -62 -103 0 -38 30 -86 62 -100 16 -6 44
-8 68 -4 50 9 80 49 80 110 0 58 -32 95 -90 101 -25 2 -51 0 -58 -4z"/>
<path d="M10363 414 c-45 -15 -108 -82 -116 -122 -6 -31 7 -102 25 -136 17
-31 33 -45 78 -65 76 -34 179 8 224 91 15 28 17 46 12 91 -4 31 -14 63 -22 71
-8 8 -14 17 -14 21 0 38 -123 70 -187 49z"/>
<path d="M1306 385 c-31 -48 -9 -98 44 -98 41 0 54 15 53 60 -2 62 -65 87 -97
38z"/>
<path d="M6965 351 c-48 -22 -75 -65 -75 -118 0 -57 57 -123 106 -123 48 0 99
23 119 54 35 53 27 156 -12 156 -7 0 -13 4 -13 10 0 11 -53 40 -72 40 -7 0
-31 -9 -53 -19z"/>
<path d="M12360 299 c-109 -48 -155 -161 -111 -271 l11 -28 144 0 145 0 21 30
c25 35 31 59 32 116 0 122 -129 203 -242 153z"/>
<path d="M3450 254 c-61 -52 -25 -154 55 -154 87 0 111 147 27 166 -15 3 -33
7 -39 9 -7 2 -26 -7 -43 -21z"/>
<path d="M9009 227 c-48 -32 -80 -99 -72 -151 11 -77 9 -76 147 -76 143 0 144
1 153 84 5 48 2 60 -23 100 -17 27 -41 50 -58 56 -49 17 -110 12 -147 -13z"/>
<path d="M5574 160 c-34 -13 -66 -74 -62 -117 l3 -38 110 0 110 0 3 31 c5 51
-22 103 -62 119 -39 17 -70 18 -102 5z"/>
<path d="M11045 98 c-26 -14 -95 -80 -95 -90 0 -4 74 -8 165 -8 l165 0 -23 37
c-13 21 -39 46 -58 55 -39 19 -124 23 -154 6z"/>
<path d="M2075 83 c-32 -8 -45 -24 -45 -54 l0 -29 70 0 c73 0 79 4 58 43 -21
41 -41 50 -83 40z"/>
<path d="M7710 60 c-30 -6 -90 -41 -90 -52 0 -4 50 -8 112 -8 l111 0 -21 23
c-27 28 -77 45 -112 37z"/>
</g>
</svg>
